PathFileType	4	(X/Y/Z)	C:\Users\dbl\Desktop\LZH\BX\bx_y_5_901.trc
DataRate	CameraRate	NumFrames	NumMarkers	Units	OrigDataRate	OrigDataStartFrame	OrigNumFrames
50.00	50.00	      8	43	mm	50.00	1172	      1562
Frame#	Time	Top.Head			R.Acromium			L.Acromium			Sternum			R.ASIS			L.ASIS			V.Sacral			R.Thigh.Upper			R.Thigh.Front			R.Thigh.Rear			R.Knee.Lat			R.Knee.Med			R.Shank.Upper			R.Shank.Front			R.Shank.Rear			R.Ankle.Lat			R.Midfoot.Lat			R.Toe.Lat			R.Toe.Tip			R.Toe.Med			R.Ankle.Med			R.Midfoot.Sup			R.Heel			L.Thigh.Upper			L.Thigh.Front			L.Thigh.Rear			L.Knee.Lat			L.Knee.Med			L.Shank.Upper			L.Shank.Front			L.Shank.Rear			L.Ankle.Lat			L.Midfoot.Lat			L.Toe.Lat			L.Toe.Tip			L.Toe.Med			L.Ankle.Med			L.Midfoot.Sup			L.Heel			origin1 front left			origin2 front right			origin 3 back right			origin 4 back leftt			
		X1	Y1	Z1	X2	Y2	Z2	X3	Y3	Z3	X4	Y4	Z4	X5	Y5	Z5	X6	Y6	Z6	X7	Y7	Z7	X8	Y8	Z8	X9	Y9	Z9	X10	Y10	Z10	X11	Y11	Z11	X12	Y12	Z12	X13	Y13	Z13	X14	Y14	Z14	X15	Y15	Z15	X16	Y16	Z16	X17	Y17	Z17	X18	Y18	Z18	X19	Y19	Z19	X20	Y20	Z20	X21	Y21	Z21	X22	Y22	Z22	X23	Y23	Z23	X24	Y24	Z24	X25	Y25	Z25	X26	Y26	Z26	X27	Y27	Z27	X28	Y28	Z28	X29	Y29	Z29	X30	Y30	Z30	X31	Y31	Z31	X32	Y32	Z32	X33	Y33	Z33	X34	Y34	Z34	X35	Y35	Z35	X36	Y36	Z36	X37	Y37	Z37	X38	Y38	Z38	X39	Y39	Z39	X40	Y40	Z40	X41	Y41	Z41	X42	Y42	Z42	X43	Y43	Z43	

1172	23.420	-693.51929	246.13721	1828.79163	-642.02655	62.62051	1521.28760	-610.84802	449.60172	1535.97693	-528.52521	261.00140	1394.34985	-539.94104	143.00967	1062.33118	-534.15045	401.08655	1073.70435	-743.95172	264.01633	1016.90881	-570.89856	97.76340	896.32666	-524.11523	157.29507	846.03204	-623.58942	95.04476	750.44562	-642.61066	127.77653	611.01630	-630.76300	235.56502	563.68024	-683.58759	127.74316	544.49530	-599.31635	176.51183	547.75641	-723.50482	132.26205	477.88934	-687.62012	146.66164	214.60571	-614.66589	80.37817	165.77786	-569.34955	55.00125	162.04666	-491.53204	97.91758	161.80469	-530.53369	148.76921	166.01630	-633.98169	218.01654	219.41896	-591.75287	190.47057	170.98244	-716.69421	214.26541	169.57658	-555.45764	436.94025	883.78650	-523.17102	368.80878	829.81702	-609.50769	440.00574	752.31262	-646.97046	417.68173	630.14758	-619.21936	310.97452	580.35065	-658.83899	412.63254	565.11511	-607.79370	370.32135	542.14038	-712.13550	419.60419	514.21008	-679.49750	416.27444	212.93138	-583.36420	468.97775	164.97826	-543.73193	477.63461	159.77335	-480.29059	428.31808	166.28680	-524.94958	387.52567	177.38509	-644.36255	328.77347	207.36110	-595.58905	350.08640	167.83670	-732.48071	346.15231	164.10393	-443.99133	448.67410	148.14694	-450.32452	75.75864	143.90817	-805.81488	82.34390	142.64235	-799.76935	457.70364	145.32829	
1173	23.440	-695.65967	246.88278	1828.72681	-643.68567	63.14723	1521.49182	-612.43774	450.06979	1535.61255	-529.66144	261.22186	1394.65747	-538.67096	142.94707	1062.51538	-534.18146	401.24915	1073.61670	-743.79468	263.84180	1017.02362	-570.76685	97.69643	896.29688	-523.98297	157.31952	845.97369	-623.39948	94.89666	750.35760	-642.52032	127.74921	610.95868	-630.80634	235.48193	563.77039	-683.57227	127.61272	544.52161	-599.36078	176.51379	547.76068	-723.49109	132.22543	477.82330	-687.67505	146.64972	214.61086	-614.67651	80.36702	165.76823	-569.34961	54.99120	162.04099	-491.53012	97.91435	161.81749	-530.52356	148.81061	165.93010	-633.99133	218.01852	219.41472	-591.71228	190.49229	171.00110	-716.68726	214.30185	169.57391	-554.55518	437.11716	884.09509	-523.01184	368.80197	829.89191	-609.36847	439.90915	752.21783	-646.89648	417.54535	630.11957	-619.18451	310.88544	580.24072	-658.81287	412.52121	565.10468	-607.78967	370.23068	542.11487	-712.14105	419.50931	514.21747	-679.51343	416.25406	212.94879	-583.36041	468.97305	164.99234	-543.75287	477.64072	159.77979	-480.27203	428.36276	166.32127	-524.91675	387.53415	177.39963	-644.37628	328.77887	207.32753	-595.59033	350.04172	167.80505	-732.49451	346.14877	164.13383	-443.98892	448.67978	148.13600	-450.32407	75.75597	143.91135	-805.80347	82.33669	142.64360	-799.77344	457.70355	145.32307	
1174	23.460	-697.40997	247.64969	1828.71387	-645.15112	63.66887	1521.69226	-613.87341	450.50494	1535.25232	-530.72546	261.45514	1394.89563	-537.40002	142.89737	1062.67908	-534.35596	401.37387	1073.56543	-743.80225	263.62009	1017.15790	-570.75122	97.59824	896.28247	-523.99573	157.31056	845.95105	-623.34137	94.70483	750.31183	-642.53217	127.67766	610.90704	-630.92480	235.35954	563.89795	-683.63251	127.44656	544.52686	-599.46436	176.47276	547.77740	-723.53082	132.10910	477.78787	-687.73529	146.62219	214.60707	-614.68329	80.35793	165.75769	-569.34845	54.97687	162.03687	-491.53180	97.91004	161.82906	-530.52142	148.84642	165.85893	-633.97534	218.04045	219.44313	-591.68652	190.49460	171.04988	-716.69495	214.31989	169.56822	-553.81525	437.31946	884.42950	-523.07678	368.74365	829.89917	-609.44250	439.81543	752.13666	-646.99548	417.40109	630.08405	-619.24805	310.77957	580.16302	-658.90656	412.40805	565.09113	-607.89850	370.15594	542.09979	-712.25049	419.40399	514.20398	-679.54645	416.24500	212.95798	-583.36328	468.97806	165.00510	-543.77576	477.64694	159.78471	-480.26132	428.40735	166.35876	-524.88831	387.55573	177.42459	-644.39093	328.78934	207.29095	-595.58960	350.00720	167.79094	-732.50861	346.14536	164.17375	-443.98932	448.68253	148.12805	-450.32547	75.75331	143.90863	-805.80835	82.33467	142.65182	-799.77960	457.70648	145.31599	
1175	23.480	-698.81470	248.43906	1828.74744	-646.43341	64.16661	1521.87939	-615.17981	450.90085	1534.90796	-531.71918	261.69794	1395.07129	-536.13507	142.85767	1062.82410	-534.65143	401.45380	1073.53381	-743.95435	263.35959	1017.30090	-570.84222	97.47649	896.26941	-524.13385	157.26495	845.96039	-623.39600	94.48244	750.30542	-642.63641	127.56293	610.86389	-631.11676	235.21176	564.03778	-683.76251	127.25378	544.51184	-599.62128	176.39691	547.80426	-723.62097	131.92036	477.78528	-687.78888	146.58476	214.59456	-614.68817	80.34904	165.74701	-569.34656	54.95970	162.03481	-491.53723	97.90611	161.83711	-530.52667	148.87077	165.81238	-633.93536	218.07857	219.49969	-591.68103	190.47426	171.12085	-716.71320	214.32245	169.56116	-553.24890	437.53409	884.77490	-523.33417	368.62720	829.84027	-609.69391	439.72977	752.07489	-647.23926	417.25586	630.04553	-619.39478	310.65985	580.12073	-659.09857	412.29770	565.07458	-608.09827	370.08997	542.09430	-712.44275	419.29724	514.17358	-679.59125	416.24384	212.95850	-583.37433	468.99060	165.01357	-543.79907	477.65314	159.78793	-480.25897	428.44818	166.39595	-524.86920	387.58487	177.45418	-644.40466	328.80136	207.25761	-595.58881	349.98373	167.79225	-732.52045	346.14142	164.21881	-443.99246	448.68158	148.12425	-450.32922	75.75240	143.89941	-805.82806	82.33728	142.66676	-799.78711	457.71194	145.30879	
1176	23.500	-699.92517	249.24687	1828.81726	-647.53528	64.61841	1522.04504	-616.37396	451.25082	1534.59106	-532.64099	261.94415	1395.19214	-534.88177	142.82600	1062.95215	-535.04584	401.48434	1073.50610	-744.23053	263.06842	1017.44354	-571.03021	97.33731	896.24817	-524.38043	157.18336	845.99585	-623.54694	94.24437	750.33081	-642.82556	127.41027	610.83002	-631.38074	235.05292	564.16547	-683.95703	127.04436	544.47925	-599.82819	176.29332	547.84155	-723.76025	131.67471	477.80856	-687.82660	146.54373	214.57394	-614.69409	80.33759	165.73703	-569.34460	54.94117	162.03389	-491.54645	97.90419	161.83969	-530.53809	148.88092	165.79414	-633.87396	218.12949	219.57922	-591.69812	190.43216	171.20363	-716.73712	214.31349	169.55388	-552.87134	437.74680	885.11499	-523.74194	368.46216	829.73322	-610.08429	439.65344	752.03406	-647.59875	417.11438	630.00836	-619.61017	310.53290	580.10950	-659.36926	412.19275	565.05493	-608.36743	370.02643	542.09650	-712.69855	419.19629	514.13123	-679.64301	416.24542	212.95088	-583.39417	469.00812	165.01483	-543.82117	477.65961	159.78957	-480.26428	428.48279	166.42944	-524.86255	387.61563	177.48192	-644.41589	328.81110	207.23413	-595.58911	349.97040	167.80566	-732.52802	346.13721	164.26353	-443.99777	448.67734	148.12402	-450.33548	75.75506	143.88332	-805.85907	82.34347	142.68704	-799.79529	457.71829	145.30205	
1177	23.520	-700.79669	250.06445	1828.91040	-648.45526	65.00227	1522.18457	-617.46667	451.54755	1534.31226	-533.48871	262.18494	1395.26550	-533.64404	142.80147	1063.06421	-535.51862	401.46500	1073.47217	-744.61053	262.75415	1017.57922	-571.30432	97.18566	896.21423	-524.72076	157.07079	846.04980	-623.78058	94.00457	750.37726	-643.09308	127.22794	610.80505	-631.71411	234.89624	564.26257	-684.21100	126.82802	544.43323	-600.08362	176.16832	547.89014	-723.94849	131.39163	477.84387	-687.84381	146.50500	214.54643	-614.70435	80.32085	165.72847	-569.34363	54.92254	162.03197	-491.55896	97.90574	161.83546	-530.55359	148.87740	165.80190	-633.79517	218.19067	219.67694	-591.73547	190.37357	171.28728	-716.76172	214.29727	169.54733	-552.70209	437.94293	885.43170	-524.25781	368.26764	829.60278	-610.57605	439.58347	752.01123	-648.04596	416.97827	629.97540	-619.88190	310.40665	580.12012	-659.70172	412.09329	565.03223	-608.68677	369.96082	542.10425	-713.00092	419.10504	514.08167	-679.69812	416.24429	212.93700	-583.42206	469.02835	165.00703	-543.84045	477.66681	159.79015	-480.27505	428.51022	166.45636	-524.86890	387.64246	177.50201	-644.42365	328.81537	207.22519	-595.59076	349.96484	167.82689	-732.53009	346.13321	164.30321	-444.00412	448.67105	148.12587	-450.34412	75.76263	143.86044	-805.89673	82.35206	142.71045	-799.80377	457.72339	145.29521	
1178	23.540	-701.48492	250.87938	1829.01306	-649.19293	65.29964	1522.29761	-618.46399	451.78339	1534.08044	-534.26196	262.40887	1395.29871	-532.42365	142.78391	1063.16077	-536.05267	401.39966	1073.42847	-745.07471	262.42435	1017.70404	-571.65210	97.02585	896.16840	-525.14209	156.93584	846.11298	-624.08582	93.77392	750.43225	-643.43207	127.02570	610.78784	-632.11169	234.75229	564.32025	-684.51910	126.61318	544.37842	-600.38757	176.02802	547.95032	-724.18542	131.09041	477.87436	-687.84076	146.47293	214.51378	-614.72125	80.29713	165.72173	-569.34491	54.90476	162.02649	-491.57373	97.91145	161.82410	-530.57056	148.86353	165.82855	-633.70483	218.26007	219.78864	-591.78644	190.30717	171.36195	-716.78296	214.27783	169.54263	-552.76392	438.10818	885.70612	-524.84625	368.06558	829.47241	-611.13531	439.51349	752.00018	-648.55566	416.84586	629.94775	-620.19989	310.28738	580.14185	-660.08179	411.99698	565.00732	-609.04010	369.89053	542.11560	-713.33582	419.02362	514.02954	-679.75409	416.23581	212.92030	-583.45581	469.04962	164.99008	-543.85602	477.67508	159.79044	-480.28812	428.53122	166.47484	-524.88617	387.66107	177.51056	-644.42773	328.81253	207.23204	-595.59302	349.96408	167.85110	-732.52692	346.13007	164.33501	-444.01035	448.66446	148.12819	-450.35464	75.77543	143.83177	-805.93628	82.36198	142.73424	-799.81207	457.72531	145.28708	
1179	23.560	-702.04169	251.67671	1829.11316	-649.75354	65.49789	1522.38879	-619.36987	451.95087	1533.90259	-534.96411	262.60281	1395.29858	-531.22125	142.77351	1063.24219	-536.63525	401.29556	1073.37805	-745.60425	262.08688	1017.81610	-572.06036	96.86174	896.11493	-525.63318	156.78972	846.17462	-624.45386	93.55915	750.48352	-643.83472	126.81342	610.77667	-632.56512	234.62750	564.34027	-684.87543	126.40627	544.31934	-600.74030	175.87866	548.02014	-724.46936	130.78711	477.88409	-687.82184	146.44963	214.47824	-614.74579	80.26637	165.71666	-569.34943	54.88839	162.01538	-491.58905	97.92099	161.80630	-530.58582	148.84427	165.86449	-633.61053	218.33560	219.90997	-591.84137	190.24336	171.42030	-716.79803	214.25865	169.54115	-553.07971	438.22940	885.91895	-525.48242	367.87469	829.35858	-611.73486	439.43631	751.99390	-649.10632	416.71310	629.92505	-620.55621	310.17770	580.16528	-660.49817	411.90024	564.98206	-609.41504	369.81470	542.12958	-713.69232	418.94891	513.97864	-679.80945	416.21747	212.90549	-583.49231	469.07092	164.96571	-543.86768	477.68454	159.79132	-480.30017	428.54770	166.48439	-524.90997	387.66895	177.50639	-644.42889	328.80292	207.25195	-595.59442	349.96506	167.87361	-732.52032	346.12802	164.35854	-444.01538	448.65933	148.12978	-450.36624	75.79240	143.79929	-805.97351	82.37246	142.75551	-799.81970	457.72287	145.27666	
